<svg id="Layer_1" data-name="Layer 1" xmlns="http://www.w3.org/2000/svg" viewBox="0 0 49.2 49.2"><defs><style>.cls-1{fill:#fff;}</style></defs><polygon class="cls-1" points="11 22.22 11 26.98 14.56 24.6 11 22.22"/><polygon class="cls-1" points="32.31 22.89 37.3 19.55 26.14 12.12 26.14 18.76 32.31 22.89"/><polygon class="cls-1" points="23.29 18.76 23.29 12.12 12.14 19.55 17.12 22.89 23.29 18.76"/><polygon class="cls-1" points="12.14 29.65 23.29 37.08 23.29 30.44 17.12 26.31 12.14 29.65"/><polygon class="cls-1" points="26.14 30.44 26.14 37.08 37.3 29.65 32.31 26.31 26.14 30.44"/><polygon class="cls-1" points="24.72 21.23 19.68 24.6 24.72 27.97 29.75 24.6 24.72 21.23"/><path class="cls-1" d="M28.3,5.2A24.6,24.6,0,1,0,52.9,29.8,24.58,24.58,0,0,0,28.3,5.2ZM45,34.85A1.09,1.09,0,0,1,45,35s0,0,0,.07l0,.12a.14.14,0,0,1,0,.06.49.49,0,0,1,0,.11l0,.07a.41.41,0,0,1-.05.09.25.25,0,0,1,0,.07l-.06.08a.18.18,0,0,1,0,.07l-.07.07,0,.06a.27.27,0,0,0-.08.07l-.07,0s0,0,0,0L29.21,46.12a1.43,1.43,0,0,1-.79.24,1.41,1.41,0,0,1-.79-.24L12.49,36l0,0-.06,0-.08-.06-.06-.06-.07-.08,0-.06-.06-.08a.43.43,0,0,0,0-.07l0-.09,0-.07s0-.07,0-.11a.25.25,0,0,0,0-.07.5.5,0,0,1,0-.12s0,0,0-.06,0-.12,0-.18V24.75c0-.06,0-.12,0-.18a.64.64,0,0,0,0-.07.36.36,0,0,1,0-.11.25.25,0,0,0,0-.07s0-.07,0-.11l0-.07,0-.09a.43.43,0,0,0,0-.07l.06-.08,0-.06.07-.08.06-.06.08-.06.06-.05,0,0L27.63,13.48a1.42,1.42,0,0,1,1.58,0L44.35,23.57l0,0,.07.05.08.06,0,.06a.27.27,0,0,1,.07.08l0,.06.06.08,0,.07a.41.41,0,0,1,.05.09l0,.07a.49.49,0,0,1,0,.11.14.14,0,0,1,0,.07l0,.12s0,0,0,.06a1.09,1.09,0,0,1,0,.18Z" transform="translate(-3.7 -5.2)"/><polygon class="cls-1" points="38.43 26.98 38.43 22.22 34.87 24.6 38.43 26.98"/><polygon points="26.14 12.12 26.14 12.12 26.14 12.12 26.14 12.12"/></svg>