<?xml version="1.0" encoding="utf-8"?>
<!-- Generator: Adobe Illustrator 25.4.1, SVG Export Plug-In . SVG Version: 6.00 Build 0)  -->
<svg version="1.1" id="Layer_1" xmlns="http://www.w3.org/2000/svg" xmlns:xlink="http://www.w3.org/1999/xlink" x="0px" y="0px"
	 viewBox="0 0 56.7 56.7" style="enable-background:new 0 0 56.7 56.7;" xml:space="preserve">
<style type="text/css">
	.st0{fill-rule:evenodd;clip-rule:evenodd;fill:#FFFFFF;}
	.st1{fill:#FFFFFF;}
</style>
<g>
	<path class="st0" d="M28.3,5.2c-13.6,0-24.6,11-24.6,24.6c0,10.9,7.1,20.1,16.8,23.4c1.2,0.2,1.7-0.5,1.7-1.2c0-0.6,0-2.5,0-4.6
		c-6.9,1.5-8.3-2.9-8.3-2.9c-1.1-2.8-2.7-3.6-2.7-3.6c-2.2-1.5,0.2-1.5,0.2-1.5c2.5,0.2,3.8,2.5,3.8,2.5c2.2,3.8,5.8,2.7,7.2,2
		c0.2-1.6,0.9-2.7,1.6-3.3c-5.5-0.6-11.2-2.7-11.2-12.2c0-2.7,1-4.9,2.5-6.6c-0.3-0.6-1.1-3.1,0.2-6.5c0,0,2.1-0.7,6.8,2.5
		c2-0.5,4.1-0.8,6.2-0.8c2.1,0,4.2,0.3,6.2,0.8c4.7-3.2,6.8-2.5,6.8-2.5c1.3,3.4,0.5,5.9,0.2,6.5c1.6,1.7,2.5,3.9,2.5,6.6
		c0,9.5-5.8,11.5-11.2,12.2c0.9,0.8,1.7,2.3,1.7,4.6c0,3.3,0,5.9,0,6.8c0,0.7,0.4,1.4,1.7,1.2C45.9,50,53,40.7,53,29.8
		C53,16.2,41.9,5.2,28.3,5.2z"/>
	<path class="st1" d="M13,40.6c-0.1,0.1-0.2,0.2-0.4,0.1c-0.2-0.1-0.3-0.2-0.2-0.4c0.1-0.1,0.2-0.2,0.4-0.1
		C13,40.3,13.1,40.5,13,40.6L13,40.6z"/>
	<path class="st1" d="M14,41.7c-0.1,0.1-0.3,0.1-0.5-0.1c-0.2-0.2-0.2-0.4-0.1-0.5c0.1-0.1,0.3-0.1,0.5,0.1
		C14.1,41.4,14.2,41.6,14,41.7L14,41.7z"/>
	<path class="st1" d="M15,43.1c-0.2,0.1-0.4,0-0.6-0.2c-0.2-0.2-0.2-0.5,0-0.6c0.2-0.1,0.4,0,0.6,0.2C15.2,42.7,15.2,43,15,43.1
		L15,43.1z"/>
	<path class="st1" d="M16.3,44.5c-0.1,0.1-0.4,0.1-0.6-0.1c-0.2-0.2-0.3-0.5-0.1-0.6c0.1-0.1,0.4-0.1,0.6,0.1
		C16.4,44.1,16.5,44.3,16.3,44.5L16.3,44.5z"/>
	<path class="st1" d="M18.2,45.3c-0.1,0.2-0.3,0.3-0.6,0.2c-0.3-0.1-0.5-0.3-0.4-0.5c0.1-0.2,0.3-0.3,0.6-0.2
		C18,44.9,18.2,45.1,18.2,45.3L18.2,45.3z"/>
	<path class="st1" d="M20.2,45.4c0,0.2-0.2,0.4-0.5,0.4c-0.3,0-0.5-0.2-0.5-0.4c0-0.2,0.2-0.4,0.5-0.4
		C19.9,45.1,20.2,45.2,20.2,45.4L20.2,45.4z"/>
	<path class="st1" d="M22.1,45.1c0,0.2-0.2,0.4-0.5,0.5c-0.3,0.1-0.6-0.1-0.6-0.3c0-0.2,0.2-0.4,0.5-0.5
		C21.8,44.8,22,44.9,22.1,45.1L22.1,45.1z"/>
</g>
</svg>
