<svg id="Layer_1" data-name="Layer 1" xmlns="http://www.w3.org/2000/svg" viewBox="0 0 49.2 49.2"><defs><style>.cls-1{fill:#fff;}</style></defs><path class="cls-1" d="M28.3,5.2A24.6,24.6,0,1,0,52.9,29.8,24.58,24.58,0,0,0,28.3,5.2Zm8,33.7c-1,1-2,2-3,3A6.71,6.71,0,0,1,32,43a7.43,7.43,0,0,1-8.41-.12,8.35,8.35,0,0,1-1.34-1.1c-1.63-1.6-3.24-3.22-4.85-4.84a7.62,7.62,0,0,1,0-10.89c2.72-2.77,5.48-5.49,8.22-8.24l4.67-4.66A1.84,1.84,0,0,1,32,12.54a1.76,1.76,0,0,1,1.41,1.32,1.8,1.8,0,0,1-.47,1.87L30.1,18.56l-.33.35.89.3A6.82,6.82,0,0,1,33,20.67c1.14,1.1,2.25,2.23,3.36,3.36a1.83,1.83,0,0,1-2,3,2.94,2.94,0,0,1-.83-.63c-.94-.92-1.85-1.87-2.79-2.8a3.83,3.83,0,0,0-5-.54,15.43,15.43,0,0,0-1.56,1.47c-1.39,1.38-2.78,2.77-4.15,4.16a3.79,3.79,0,0,0-.1,5.4c1.82,1.9,3.7,3.76,5.59,5.59a3.78,3.78,0,0,0,4.92-.16c1.1-1,2.14-2.12,3.21-3.18a1.92,1.92,0,0,1,1.18-.62,1.85,1.85,0,0,1,1.48,3.2Zm3.6-5.69c-4.32,0-8.64,0-13,0a1.83,1.83,0,0,1-1.85-1.91,1.62,1.62,0,0,1,1.62-1.56h6.67c2.19,0,4.37,0,6.56,0a1.69,1.69,0,0,1,1.75,1.79A1.71,1.71,0,0,1,39.88,33.21Z" transform="translate(-3.7 -5.2)"/></svg>