<?xml version="1.0" encoding="utf-8"?>
<svg version="1.1" id="Layer_1" xmlns="http://www.w3.org/2000/svg" xmlns:xlink="http://www.w3.org/1999/xlink" x="0px" y="0px"
	 viewBox="0 0 56.7 56.7" style="enable-background:new 0 0 56.7 56.7;" xml:space="preserve">
	<path fill="white" d="M29.4,28.5L29.4,28.5C29.4,28.5,29.3,28.5,29.4,28.5L29.4,28.5z"/>
	<path fill="white" d="M28.3,5.2c-13.6,0-24.6,11-24.6,24.6c0,13.6,11,24.6,24.6,24.6c13.6,0,24.6-11,24.6-24.6
		C53,16.2,41.9,5.2,28.3,5.2z M22.9,39.2h-4.2V26.7h4.2V39.2z M20.8,25L20.8,25c-1.4,0-2.3-1-2.3-2.2c0-1.2,0.9-2.2,2.3-2.2
		c1.4,0,2.3,0.9,2.3,2.2C23.2,24.1,22.3,25,20.8,25z M37.9,39.2h-4.2v-6.7c0-1.7-0.6-2.8-2.1-2.8c-1.1,0-1.8,0.8-2.1,1.5
		c-0.1,0.3-0.1,0.6-0.1,1v7h-4.2c0,0,0.1-11.3,0-12.5h4.2v1.8c0.6-0.9,1.5-2.1,3.7-2.1c2.7,0,4.8,1.8,4.8,5.6V39.2z"/>
</svg>
