<svg id="Layer_1" data-name="Layer 1" xmlns="http://www.w3.org/2000/svg" viewBox="0 0 49.2 49.2"><defs><style>.cls-1{fill:#fff;}</style></defs><path class="cls-1" d="M28.3,5.2A24.6,24.6,0,1,0,52.9,29.8,24.58,24.58,0,0,0,28.3,5.2ZM21.15,39.1a9.35,9.35,0,1,1,9.35-9.35A9.35,9.35,0,0,1,21.15,39.1ZM36,38.63c-2.58,0-4.67-4-4.67-8.88s2.09-8.88,4.67-8.88,4.68,4,4.68,8.88S38.62,38.63,36,38.63Zm7.22-1c-.91,0-1.64-3.55-1.64-7.93s.73-7.93,1.64-7.93,1.65,3.55,1.65,7.93S44.16,37.68,43.25,37.68Z" transform="translate(-3.7 -5.2)"/></svg>