<svg id="Layer_1" data-name="Layer 1" xmlns="http://www.w3.org/2000/svg" viewBox="0 0 49.2 49.2"><defs><style>.cls-1{fill:#fff;}</style></defs><path class="cls-1" d="M27.7,18.77c-4.82,0-6.9,3.43-6.9,10.13S22.88,39,27.7,39a7.68,7.68,0,0,0,2.1-.27c-1-2-2.17-4-4.45-4a3.07,3.07,0,0,0-1.27.26l-.78-1.55A6.81,6.81,0,0,1,27.74,32a6.46,6.46,0,0,1,5.86,3.35,15.67,15.67,0,0,0,1.09-6.45C34.69,22.2,32.59,18.77,27.7,18.77Zm1.66,9.73h0Z" transform="translate(-3.7 -5.2)"/><path class="cls-1" d="M28.3,5.2A24.6,24.6,0,1,0,52.9,29.8,24.58,24.58,0,0,0,28.3,5.2ZM37.11,45c-3.18,0-4.86-1.85-6.12-4a12.92,12.92,0,0,1-3.29.44A12.61,12.61,0,1,1,40.45,28.9a12.24,12.24,0,0,1-4.81,9.83c.92,1.38,1.87,2.3,3.19,2.3A2.09,2.09,0,0,0,41,39h1.88C42.94,40.2,42.36,45,37.11,45Z" transform="translate(-3.7 -5.2)"/></svg>