<svg id="Layer_1" data-name="Layer 1" xmlns="http://www.w3.org/2000/svg" viewBox="0 0 49.2 49.2"><defs><style>.cls-1{fill:#fff;}.cls-2{fill:#464342;}</style></defs><path class="cls-1" d="M28.3,15.41A14.39,14.39,0,1,0,42.69,29.8,14.4,14.4,0,0,0,28.3,15.41ZM15.36,29.8a12.86,12.86,0,0,1,1.12-5.27l6.17,16.92A13,13,0,0,1,15.36,29.8ZM28.3,42.74a13,13,0,0,1-3.66-.53l3.89-11.28,4,10.9a.76.76,0,0,0,.09.18A13,13,0,0,1,28.3,42.74Zm1.78-19c.78,0,1.48-.12,1.48-.12a.54.54,0,0,0-.08-1.07s-2.09.17-3.45.17-3.41-.17-3.41-.17a.54.54,0,0,0-.08,1.07s.66.08,1.36.12l2,5.53-2.84,8.49-4.71-14c.78,0,1.48-.12,1.48-.12a.54.54,0,0,0-.08-1.07s-2.1.17-3.45.17l-.83,0A12.94,12.94,0,0,1,37,20.26h-.17a2.23,2.23,0,0,0-2.17,2.29,6,6,0,0,0,1.27,3A6.83,6.83,0,0,1,37,29.15a15.7,15.7,0,0,1-1,4.18l-1.29,4.31Zm9.57-.14a12.77,12.77,0,0,1,1.59,6.21A12.93,12.93,0,0,1,34.8,41l4-11.42a12.18,12.18,0,0,0,1-4.64A9.27,9.27,0,0,0,39.65,23.59Z" transform="translate(-3.7 -5.2)"/><path class="cls-1" d="M28.3,5.2A24.6,24.6,0,1,0,52.9,29.8,24.58,24.58,0,0,0,28.3,5.2Zm0,39.68A15.08,15.08,0,1,1,43.38,29.8,15.09,15.09,0,0,1,28.3,44.88Z" transform="translate(-3.7 -5.2)"/><polygon class="cls-2" points="26.14 12.12 26.14 12.12 26.14 12.12 26.14 12.12"/></svg>